<svg class="logo" xmlns="http://www.w3.org/2000/svg" viewBox="0 0 382 234"><path d="M94.3 146.2v-4.4h1.4v-4.1h1V136h6.6v-2.2h1.5v-4.2h.5v-3.9h1.3v-5.2h1v-5h1.2v-4.1h.9v-4h.8v-4.8h.9v-4.1h1.2v-3.9h1v-4.1h1.1v-4h-7.4v-1.8h1.2v-4.1h1v-4.3h30.8v2.2h-.9v3.1h-1v4.9h-7.9v3.2h-1v4h-1.1v3.6h-1v5.2h-.9v2.1h-8.1v12h5.1v3.9h-1.1v4h-.9v3.9h-1v4h-1.1v3.1h6.9v3h-1v4h-.7v3.3z"/><path fill="#66C7FF" d="M152.5 146.2v-18.7h9.1v-19h8.9V70.6h-9V52.4h-9v-19h27v19.2h8.9v18.7h9.3V52.7h8.7V33.4h16.2v10.2h11.7v9h-9v18.3h-9.6v37.6h8.9v18.8h9.7v18.9h-27.8v-18.5h-9.2v-19.3h-8.7v19.3h-9.2v18.5z"/><path d="M244.8 146.2v-1.8h.8v-3.7h1v-3.4h.8v-2h7.2v-2h.8v-3.8h1.3v-5h.9v-4h.9v-4.2h1.1v-5.6h1.1v-4.3l.8-.8v-3.1h1.4v-2.9h1.1v-4.9h.5v-4.1h1.3v-3.1h-7.1v-3.2h1.1v-3.9s.2-.3.5 0 0-1.8 0-1.8h9.4v-2.3h3.9v.8H288v-.8h28.9V81h-1.3v3.6h-1.3v4h-1.2v4.9h-.8v4.1h-12.2v-2.3h1.4v-3.8h.9v-4.8h-21v3.2h-.7v3.8h-1.3v4h-1.3v4h-.8v2.8h16.9v2.1H293v4.4h-.8v3.8h-17.9v3.8h-1.1v5.1h-1.3v4.3l-.7-.7v5.4h-1v3.2H291v-1.4h1.2v-3.7h.8v-5h1.4V124h6.6v5.8h3.1v2.2h-.9v4.8h-1.1v4.1h-1v4.2l-.7-.7v2.1H270v-6.9h-15.1v6.9h-10.1zm60.9 0v-2.5h1v-2.1h.8v-4h.9v-2.3h7.4v-2.1h.6v-4.7h1.1v-3.1h.8v-4h8.3v-11.8h-5.7v-2.4h1.9v-4.8h.8v-2.9h.8v-4.9h1.3v-4.3h.9v-3.8h-7.2v-2.3h1.2v-3.9h1v-4.2h24.9v6.3h4v4.2h-7.9v3h-1.1v3.6h-1v4.2h-1.2v4.9h-1.1v4.2h-.9v4h-.9v4.6h-1.1v4.3h-.8v3.8h-1.3v5.2h-1v3.9h-1.1v3.1h19.3v-3.3h.8V129h1.3v-4.4c0 .1 1.1 0 1.1 0V120h.9v-3.7h1.1v-3h10v3.4h-1.2v3.7h-1.1v5.1h-.9v3.9h-.9v3.7h-1.1v4.1h-1.1v1.1h-8.1v7.7h-45.5zM9 195h114.9v.9H9zm129.9-12.1v5.9h3.3v6.6h3.2v6.3h3.2v6.3h9v-6.4h3.2v5.8h9.6v-5.6h3.1v-6.4h3.2v-6h2.8v-6h-9.2v6.3h-2.7v6.2h-4.2v-6.5h-8.8v6h-3.3v-5.9h-2.7v-6.6zm66.2 22v-3.3h2.8v3.3h-3.3v3.1h-15.2v-3.6h-3v-2.8h-3.1v-11.8h3v-3.7h3.2v-2.9h15v2.8h3.3v3.3h3.7v8.9h-19.2v3.2h3.2v3.7l9.6-.2zm-13.2-15.7v6.4H202v-6.4h-3v-2.9h-3.7v3l-3.4-.1zm22.4-12.8v31.2h9.2v-3.2h2.9v-3.1h-2.9v-12h2.9v-3.8h3.4v4h2.7v11.9h-3v3h-2.7v3.2h8.7v-3h3V202h3.9v-12.5h-3.5v-3h-3.1v-3.2h-9.2v1.8h-3.3v-8.7zm44.6 18.6h114.9v1H258.9zM39.5 146.2v-4.6h-6.1v-4.9h1v-1.2h7v-1.6h.9v-5.2h1v-4.1h1.1v-4h1.1v-4.8h.7v-4h1.2v-2.2h6v-6.9h1v-7h-2.9v-6h1.1v-3H45l2.5-11.2 9.2.7v3.7l14 .3.2-4.7h14.5l.5 1.2c13.7.5 15 9.7 14.3 20.2-1 15.2-20.5 22.3-20.5 22.3H60.3l-2.8 16.2h7.3L62 146.2H39.5zm31.6-36.6v-1.3h4.4v-.8h1.1v-1.3h2v-1.1h.9v-1h1.1v-1.5h.9v-2h.9v-3.2h1v-6.9h-.8v-1.3h-.9v-.9h-1.1v-.7h-4.1v-1.3h-8.1V91h-.8v3.6h-.8v5.6h-1v3.6h-1.1v3.5h-.9v2l7.3.3z"/></svg>