<?xml version="1.0" encoding="utf-8"?>
<!-- Generator: Adobe Illustrator 17.1.0, SVG Export Plug-In . SVG Version: 6.00 Build 0)  -->
<!DOCTYPE svg PUBLIC "-//W3C//DTD SVG 1.1//EN" "http://www.w3.org/Graphics/SVG/1.1/DTD/svg11.dtd">
<svg class="logo" version="1.1" id="Layer_1" xmlns="http://www.w3.org/2000/svg" xmlns:xlink="http://www.w3.org/1999/xlink" x="0px" y="0px"
	 viewBox="0 0 382 234" enable-background="new 0 0 382 234" xml:space="preserve">
<polygon points="94.3,146.2 94.3,141.8 95.7,141.8 95.7,137.7 96.7,137.7 96.7,136 103.3,136 103.3,133.8 104.8,133.8 104.8,129.6 
	105.3,129.6 105.3,125.7 106.6,125.7 106.6,120.5 107.6,120.5 107.6,116.6 107.6,115.5 108.8,115.5 108.8,111.4 109.7,111.4 
	109.7,107.4 110.5,107.4 110.5,103.4 110.5,102.6 111.4,102.6 111.4,98.5 112.6,98.5 112.6,94.6 113.6,94.6 113.6,90.5 114.7,90.5 
	114.7,87.2 114.7,86.5 107.3,86.5 107.3,84.7 108.5,84.7 108.5,80.6 109.5,80.6 109.5,76.3 140.3,76.3 140.3,78.5 139.4,78.5 
	139.4,81.6 138.4,81.6 138.4,86.5 130.5,86.5 130.5,89.7 129.5,89.7 129.5,93.7 128.4,93.7 128.4,97.3 127.4,97.3 127.4,102.5 
	126.5,102.5 126.5,104.6 118.4,104.6 118.4,116.6 123.5,116.6 123.5,119.5 123.5,120.5 122.4,120.5 122.4,124.5 121.5,124.5 
	121.5,128.4 120.5,128.4 120.5,132.4 119.4,132.4 119.4,135.5 126.3,135.5 126.3,138.5 125.3,138.5 125.3,141.5 125.3,142.5 
	124.6,142.5 124.6,145.8 "/>
<polygon id="the_x" fill="#66C7FF" points="152.5,146.2 152.5,127.5 161.6,127.5 161.6,108.5 170.5,108.5 170.5,70.6 161.5,70.6 161.5,52.4 
	152.5,52.4 152.5,33.4 179.5,33.4 179.5,52.6 188.4,52.6 188.4,71.3 197.7,71.3 197.7,52.7 206.4,52.7 206.4,33.4 222.6,33.4 
	222.6,43.6 234.3,43.6 234.3,52.6 225.3,52.6 225.3,70.9 215.7,70.9 215.7,108.5 224.6,108.5 224.6,127.3 234.3,127.3 234.3,145.8 
	234.3,146.2 206.5,146.2 206.5,127.7 197.3,127.7 197.3,108.4 188.6,108.4 188.6,127.7 179.4,127.7 179.4,146.2 "/>
<path d="M244.8,146.2v-1.8h0.8v-3.7h1v-3.4h0.8v-2h7.2v-2h0.8v-3.8h1.3v-5h0.9v-4h0.9v-4.2h1.1v-5.6h1.1v-4.3l0.8-0.8v-3.1h1.4v-2.9
	h1.1v-4.9h0.5v-4.1h1.3v-3.1h-7.1v-3.2h1.1v-3.9c0,0,0.2-0.3,0.5,0c0.3,0.3,0-1.8,0-1.8h9.4v-2.3h3.9v0.8h14.4v-0.8h28.9V81h-1.3
	v3.6h-1.3v4h-1.2v4.9h-0.8v4.1h-12.2v-2.3h1.4v-3.8h0.9v-4.8h-21v3.2h-0.7v3.8h-1.3v4h-1.3v4h-0.8v2.8h16.9v2.1h-1.2v4.4h-0.8v3.8
	h-17.9v3.8h-1.1v5.1h-1.3v4.3l-0.7-0.7v5.4h-1v3.2h20.8v-1.4h1.2v-3.7h0.8v-5h1.4v-1.8h6.6v5.8h3.1v2.2h-0.9v4.8h-1.1v4.1h-1v4.2
	l-0.7-0.7v1.6v0.5H270v-6.9h-15.1v6.9H244.8z"/>
<path d="M305.7,146.2v-2.5h1v-2.1h0.8v-4h0.9v-2.3h7.4v-2.1h0.6v-4.7h1.1v-3.1h0.8v-4h8.3v-11.8h-5.7v-2.4h1.9v-4.8h0.8v-2.9h0.8
	v-4.9h1.3v-4.3h0.9v-3.8h-7.2v-2.3h1.2v-3.9h1v-4.2h24.9v6.3h4v4.2h-7.9v3h-1.1v3.6h-1v4.2h-1.2v4.9h-1.1v4.2h-0.9v4h-0.9v4.6h-1.1
	v4.3h-0.8v3.8h-1.3v5.2h-1v3.9h-1.1v3.1h19.3v-3.3h0.8V129h1.3c0,0,0-4.5,0-4.4s1.1,0,1.1,0V120h0.9v-3.7h1.1v-3h10v3.4h-1.2v3.7
	h-1.1v5.1h-0.9v3.9h-0.9v3.7h-1.1v4.1h-1.1v1.1h-8.1v7.7H305.7z"/>
<rect x="9" y="195" width="114.9" height="0.9"/>
<polygon points="138.9,182.9 138.9,188.8 142.2,188.8 142.2,195.4 145.4,195.4 145.4,201.7 148.6,201.7 148.6,208 157.6,208 
	157.6,201.6 160.8,201.6 160.8,207.4 170.4,207.4 170.4,201.8 173.5,201.8 173.5,195.4 176.7,195.4 176.7,189.4 179.5,189.4 
	179.5,183.4 170.3,183.4 170.3,189.7 167.6,189.7 167.6,195.9 163.4,195.9 163.4,189.4 154.6,189.4 154.6,195.4 151.3,195.4 
	151.3,189.5 148.6,189.5 148.6,182.9 "/>
<path d="M205.1,204.9v-3.3h2.8v3.3h-3.3v3.1h-15.2v-3.6h-3v-2.8h-3.1v-11.8h3v-3.7h3.2v-2.9h15v2.8h3.3v3.3h3.7v8.9h-19.2v3.2h3.2
	v2.4v0.7v0.6L205.1,204.9z M191.9,189.2v6.4H202v-6.4h-3v-2.9h-3.7v3L191.9,189.2z"/>
<polygon points="214.3,176.4 214.3,207.6 223.5,207.6 223.5,204.4 226.4,204.4 226.4,201.3 223.5,201.3 223.5,189.3 226.4,189.3 
	226.4,185.5 229.8,185.5 229.8,189.5 232.5,189.5 232.5,201.4 229.5,201.4 229.5,204.4 226.8,204.4 226.8,207.6 235.5,207.6 
	235.5,204.6 238.5,204.6 238.5,202 242.4,202 242.4,189.5 238.9,189.5 238.9,186.5 235.8,186.5 235.8,183.3 226.6,183.3 
	226.6,185.1 223.3,185.1 223.3,176.4 "/>
<rect x="258.9" y="195" width="114.9" height="1"/>
<path d="M39.5,146.2v-4.6h-6.1v-4.9h1v-1.2h7v-1v-0.6h0.9v-5.2h1v-4.1h1.1v-4h1.1v-4.8h0.7v-4h1.2v-2.2h6v-6.9h1v-7h-2.9v-6l1.1,0
	v-3H45l2.5-11.2l9.2,0.7v3.7l14,0.3l0.2-4.7h14.5l0.5,1.2c13.7,0.5,15,9.7,14.3,20.2c-1,15.2-20.5,22.3-20.5,22.3H60.3l-2.8,16.2
	h7.3L62,146.2H47.5H39.5z M71.1,109.6v-1.3h4.4v-0.8h1.1v-1.3h0.9h1.1v-1.1h0.9v-1h1.1v-1.5h0.9v-2h0.9v-3.2h1v-6.9h-0.8v-1.3h-0.9
	v-0.9h-1.1v-0.7h-4.1v-1.3h-8.1V91h-0.8v3.6h-0.8v5.6h-1v3.6h-1.1v3.5h-0.9v2L71.1,109.6z"/>
</svg>
